<svg width="32" height="32" viewBox="0 0 24 24" fill="none" xmlns="http://www.w3.org/2000/svg">
<path fill-rule="evenodd" clip-rule="evenodd" d="M11.25 0C10.4216 0 9.75 0.671573 9.75 1.5L9.56987 2.76051C9.40867 3.88912 8.09707 4.43241 7.185 3.74837L6.16637 2.98439C5.58059 2.3986 4.63084 2.3986 4.04505 2.98439L2.98439 4.04505C2.3986 4.63084 2.3986 5.58059 2.98439 6.16637L3.74836 7.185C4.43241 8.09707 3.88912 9.40867 2.76049 9.56987L1.5 9.75C0.671573 9.75 0 10.4216 0 11.25V12.75C0 13.5784 0.671573 14.25 1.5 14.25L2.76051 14.4301C3.88913 14.5913 4.43243 15.9029 3.74837 16.8149L2.98439 17.8336C2.3986 18.4195 2.3986 19.3692 2.98439 19.9549L4.04505 21.0156C4.63084 21.6015 5.58059 21.6015 6.16637 21.0156L7.185 20.2516C8.09707 19.5676 9.40867 20.1109 9.56987 21.2395L9.75 22.5C9.75 23.3284 10.4216 24 11.25 24H12.75C13.5784 24 14.25 23.3284 14.25 22.5L14.4301 21.2395C14.5913 20.1109 15.9029 19.5676 16.8149 20.2516L17.8336 21.0156C18.4195 21.6015 19.3692 21.6015 19.9549 21.0156L21.0156 19.9549C21.6013 19.3692 21.6013 18.4195 21.0156 17.8336L20.2516 16.8149C19.5676 15.9029 20.1109 14.5913 21.2395 14.4301L22.5 14.25C23.3284 14.25 24 13.5784 24 12.75V11.25C24 10.4216 23.3284 9.75 22.5 9.75L21.2395 9.56987C20.1109 9.40867 19.5676 8.09707 20.2516 7.185L21.0156 6.16637C21.6013 5.58059 21.6013 4.63084 21.0156 4.04505L19.9549 2.98439C19.3692 2.3986 18.4195 2.3986 17.8336 2.98439L16.8149 3.74837C15.9029 4.43241 14.5913 3.88912 14.4301 2.76051L14.25 1.5C14.25 0.671573 13.5784 0 12.75 0H11.25ZM12 15C13.6568 15 15 13.6568 15 12C15 10.3432 13.6568 9 12 9C10.3432 9 9 10.3432 9 12C9 13.6568 10.3432 15 12 15Z" fill="#A098AE"/>
</svg>
