<svg width="32" height="32" viewBox="0 0 32 32" fill="none" xmlns="http://www.w3.org/2000/svg">
<path d="M31.0465 18H17.0883L26.3842 27.8769C26.7395 28.2544 27.3242 28.2851 27.6895 27.9194C29.9659 25.6407 31.5318 22.5688 31.9912 19.1156C32.07 18.5243 31.6083 18 31.0465 18ZM30.1153 13.9499C29.6306 6.48358 24.0153 0.517266 16.9883 0.00226003C16.4518 -0.0371154 16.0001 0.443515 16.0001 1.01477V14.9999H29.163C29.7006 14.9999 30.1524 14.5199 30.1153 13.9499ZM13.1766 18V3.16917C13.1766 2.57229 12.683 2.08166 12.1271 2.16541C5.11717 3.21792 -0.241047 9.72487 0.00836383 17.5231C0.264834 25.5319 6.75481 32.0995 14.296 31.9989C17.2607 31.9595 20.0001 30.9445 22.2524 29.247C22.7171 28.897 22.7477 28.1701 22.3448 27.7419L13.1766 18Z" fill="#A098AE"/>
</svg>
