<svg width="32" height="32" viewBox="0 0 26 26" fill="none" xmlns="http://www.w3.org/2000/svg">
<path d="M19.4 0.839996H6.59997C5.07305 0.842366 3.60934 1.44998 2.52965 2.52968C1.44995 3.60938 0.842336 5.07308 0.839966 6.6V19.4C0.842336 20.9269 1.44995 22.3906 2.52965 23.4703C3.60934 24.55 5.07305 25.1576 6.59997 25.16H19.4C20.9269 25.1576 22.3906 24.55 23.4703 23.4703C24.55 22.3906 25.1576 20.9269 25.16 19.4V6.6C25.1576 5.07308 24.55 3.60938 23.4703 2.52968C22.3906 1.44998 20.9269 0.842366 19.4 0.839996ZM20.3984 13.64H16.9936L14.8432 17.8768C14.7911 17.9814 14.7107 18.0693 14.6111 18.1304C14.5115 18.1915 14.3968 18.2234 14.28 18.2224H14.2416C14.1175 18.2181 13.9976 18.1768 13.8973 18.1038C13.7969 18.0308 13.7207 17.9295 13.6784 17.8128L11.0928 11.144L9.95357 13.2944C9.90275 13.4 9.82262 13.4887 9.72276 13.55C9.62289 13.6113 9.50751 13.6425 9.39037 13.64H5.60157C5.43183 13.64 5.26904 13.5726 5.14902 13.4525C5.02899 13.3325 4.96157 13.1697 4.96157 13C4.96157 12.8303 5.02899 12.6675 5.14902 12.5474C5.26904 12.4274 5.43183 12.36 5.60157 12.36H9.00637L10.6192 9.3136C10.6739 9.20286 10.7603 9.1109 10.8674 9.04937C10.9746 8.98783 11.0975 8.95951 11.2208 8.968C11.3442 8.97461 11.463 9.0168 11.563 9.08949C11.6629 9.16217 11.7397 9.26224 11.784 9.3776L14.3568 16.0208L16.0336 12.7056C16.0905 12.6023 16.1738 12.5159 16.275 12.4552C16.3761 12.3944 16.4916 12.3616 16.6096 12.36H20.3984C20.5681 12.36 20.7309 12.4274 20.8509 12.5474C20.9709 12.6675 21.0384 12.8303 21.0384 13C21.0384 13.1697 20.9709 13.3325 20.8509 13.4525C20.7309 13.5726 20.5681 13.64 20.3984 13.64Z" fill="#A098AE"/>
</svg>
